<svg width="200" height="200" viewBox="0 0 200 200" fill="none" xmlns="http://www.w3.org/2000/svg">
<path d="M123.299 52H31.1111C24.9769 52.0072 20.0072 56.9769 20 63.1111V136.23C20.0072 142.365 24.9769 147.334 31.1111 147.341H123.299C129.431 147.334 134.402 142.365 134.41 136.23V63.1111C134.402 56.9769 129.431 52.0072 123.299 52Z" fill="#F6235D"/>
<path d="M141.817 111.922C141.817 113.751 142.816 115.434 144.421 116.311L172.604 131.697C175.936 133.517 180 131.105 180 127.309V72.2709C180 68.4748 175.936 66.0633 172.604 67.8824L144.421 83.2691C142.816 84.1456 141.817 85.8287 141.817 87.6577V111.922Z" fill="#F6235D"/>
</svg>
