<svg width="727" height="76" viewBox="0 0 727 76" fill="none" xmlns="http://www.w3.org/2000/svg">
<path d="M45.2848 75L31.7848 55.5H30.9848H16.8848V75H0.684766V5H30.9848C37.1848 5 42.5514 6.03333 47.0848 8.1C51.6848 10.1667 55.2181 13.1 57.6848 16.9C60.1514 20.7 61.3848 25.2 61.3848 30.4C61.3848 35.6 60.1181 40.1 57.5848 43.9C55.1181 47.6333 51.5848 50.5 46.9848 52.5L62.6848 75H45.2848ZM44.9848 30.4C44.9848 26.4667 43.7181 23.4667 41.1848 21.4C38.6514 19.2667 34.9514 18.2 30.0848 18.2H16.8848V42.6H30.0848C34.9514 42.6 38.6514 41.5333 41.1848 39.4C43.7181 37.2667 44.9848 34.2667 44.9848 30.4ZM103.72 75.8C98.0533 75.8 92.9533 74.6333 88.4199 72.3C83.9533 69.9 80.4533 66.6 77.9199 62.4C75.3866 58.2 74.1199 53.4333 74.1199 48.1C74.1199 42.7667 75.3866 38 77.9199 33.8C80.4533 29.6 83.9533 26.3333 88.4199 24C92.9533 21.6 98.0533 20.4 103.72 20.4C109.387 20.4 114.453 21.6 118.92 24C123.387 26.3333 126.887 29.6 129.42 33.8C131.953 38 133.22 42.7667 133.22 48.1C133.22 53.4333 131.953 58.2 129.42 62.4C126.887 66.6 123.387 69.9 118.92 72.3C114.453 74.6333 109.387 75.8 103.72 75.8ZM103.72 63C107.72 63 110.987 61.6667 113.52 59C116.12 56.2667 117.42 52.6333 117.42 48.1C117.42 43.5667 116.12 39.9667 113.52 37.3C110.987 34.5667 107.72 33.2 103.72 33.2C99.7199 33.2 96.4199 34.5667 93.8199 37.3C91.2199 39.9667 89.9199 43.5667 89.9199 48.1C89.9199 52.6333 91.2199 56.2667 93.8199 59C96.4199 61.6667 99.7199 63 103.72 63ZM174.647 75.8C168.914 75.8 163.747 74.6333 159.147 72.3C154.614 69.9 151.047 66.6 148.447 62.4C145.914 58.2 144.647 53.4333 144.647 48.1C144.647 42.7667 145.914 38 148.447 33.8C151.047 29.6 154.614 26.3333 159.147 24C163.747 21.6 168.914 20.4 174.647 20.4C180.314 20.4 185.247 21.6 189.447 24C193.714 26.3333 196.814 29.7 198.747 34.1L186.647 40.6C183.847 35.6667 179.814 33.2 174.547 33.2C170.481 33.2 167.114 34.5333 164.447 37.2C161.781 39.8667 160.447 43.5 160.447 48.1C160.447 52.7 161.781 56.3333 164.447 59C167.114 61.6667 170.481 63 174.547 63C179.881 63 183.914 60.5333 186.647 55.6L198.747 62.2C196.814 66.4667 193.714 69.8 189.447 72.2C185.247 74.6 180.314 75.8 174.647 75.8ZM235.439 53.9L227.939 61.3V75H212.339V0.799996H227.939V42.8L250.739 21.2H269.339L246.939 44L271.339 75H252.439L235.439 53.9ZM333.711 48.3C333.711 48.5 333.611 49.9 333.411 52.5H292.711C293.444 55.8333 295.177 58.4667 297.911 60.4C300.644 62.3333 304.044 63.3 308.111 63.3C310.911 63.3 313.377 62.9 315.511 62.1C317.711 61.2333 319.744 59.9 321.611 58.1L329.911 67.1C324.844 72.9 317.444 75.8 307.711 75.8C301.644 75.8 296.277 74.6333 291.611 72.3C286.944 69.9 283.344 66.6 280.811 62.4C278.277 58.2 277.011 53.4333 277.011 48.1C277.011 42.8333 278.244 38.1 280.711 33.9C283.244 29.6333 286.677 26.3333 291.011 24C295.411 21.6 300.311 20.4 305.711 20.4C310.977 20.4 315.744 21.5333 320.011 23.8C324.277 26.0667 327.611 29.3333 330.011 33.6C332.477 37.8 333.711 42.7 333.711 48.3ZM305.811 32.2C302.277 32.2 299.311 33.2 296.911 35.2C294.511 37.2 293.044 39.9333 292.511 43.4H319.011C318.477 40 317.011 37.3 314.611 35.3C312.211 33.2333 309.277 32.2 305.811 32.2ZM383.796 72.4C382.263 73.5333 380.363 74.4 378.096 75C375.896 75.5333 373.563 75.8 371.096 75.8C364.696 75.8 359.73 74.1667 356.196 70.9C352.73 67.6333 350.996 62.8333 350.996 56.5V34.4H342.696V22.4H350.996V9.3H366.596V22.4H379.996V34.4H366.596V56.3C366.596 58.5667 367.163 60.3333 368.296 61.6C369.496 62.8 371.163 63.4 373.296 63.4C375.763 63.4 377.863 62.7333 379.596 61.4L383.796 72.4Z" fill="#F6235D"/>
<path d="M462.354 75L462.254 33L441.654 67.6H434.354L413.854 33.9V75H398.654V5H412.054L438.254 48.5L464.054 5H477.354L477.554 75H462.354ZM550.761 48.3C550.761 48.5 550.661 49.9 550.461 52.5H509.761C510.495 55.8333 512.228 58.4667 514.961 60.4C517.695 62.3333 521.095 63.3 525.161 63.3C527.961 63.3 530.428 62.9 532.561 62.1C534.761 61.2333 536.795 59.9 538.661 58.1L546.961 67.1C541.895 72.9 534.495 75.8 524.761 75.8C518.695 75.8 513.328 74.6333 508.661 72.3C503.995 69.9 500.395 66.6 497.861 62.4C495.328 58.2 494.061 53.4333 494.061 48.1C494.061 42.8333 495.295 38.1 497.761 33.9C500.295 29.6333 503.728 26.3333 508.061 24C512.461 21.6 517.361 20.4 522.761 20.4C528.028 20.4 532.795 21.5333 537.061 23.8C541.328 26.0667 544.661 29.3333 547.061 33.6C549.528 37.8 550.761 42.7 550.761 48.3ZM522.861 32.2C519.328 32.2 516.361 33.2 513.961 35.2C511.561 37.2 510.095 39.9333 509.561 43.4H536.061C535.528 40 534.061 37.3 531.661 35.3C529.261 33.2333 526.328 32.2 522.861 32.2ZM618.847 48.3C618.847 48.5 618.747 49.9 618.547 52.5H577.847C578.581 55.8333 580.314 58.4667 583.047 60.4C585.781 62.3333 589.181 63.3 593.247 63.3C596.047 63.3 598.514 62.9 600.647 62.1C602.847 61.2333 604.881 59.9 606.747 58.1L615.047 67.1C609.981 72.9 602.581 75.8 592.847 75.8C586.781 75.8 581.414 74.6333 576.747 72.3C572.081 69.9 568.481 66.6 565.947 62.4C563.414 58.2 562.147 53.4333 562.147 48.1C562.147 42.8333 563.381 38.1 565.847 33.9C568.381 29.6333 571.814 26.3333 576.147 24C580.547 21.6 585.447 20.4 590.847 20.4C596.114 20.4 600.881 21.5333 605.147 23.8C609.414 26.0667 612.747 29.3333 615.147 33.6C617.614 37.8 618.847 42.7 618.847 48.3ZM590.947 32.2C587.414 32.2 584.447 33.2 582.047 35.2C579.647 37.2 578.181 39.9333 577.647 43.4H604.147C603.614 40 602.147 37.3 599.747 35.3C597.347 33.2333 594.414 32.2 590.947 32.2ZM668.933 72.4C667.4 73.5333 665.5 74.4 663.233 75C661.033 75.5333 658.7 75.8 656.233 75.8C649.833 75.8 644.867 74.1667 641.333 70.9C637.867 67.6333 636.133 62.8333 636.133 56.5V34.4H627.833V22.4H636.133V9.3H651.733V22.4H665.133V34.4H651.733V56.3C651.733 58.5667 652.3 60.3333 653.433 61.6C654.633 62.8 656.3 63.4 658.433 63.4C660.9 63.4 663 62.7333 664.733 61.4L668.933 72.4ZM700.79 75.8C696.324 75.8 691.957 75.2667 687.69 74.2C683.424 73.0667 680.024 71.6667 677.49 70L682.69 58.8C685.09 60.3333 687.99 61.6 691.39 62.6C694.79 63.5333 698.124 64 701.39 64C707.99 64 711.29 62.3667 711.29 59.1C711.29 57.5667 710.39 56.4667 708.59 55.8C706.79 55.1333 704.024 54.5667 700.29 54.1C695.89 53.4333 692.257 52.6667 689.39 51.8C686.524 50.9333 684.024 49.4 681.89 47.2C679.824 45 678.79 41.8667 678.79 37.8C678.79 34.4 679.757 31.4 681.69 28.8C683.69 26.1333 686.557 24.0667 690.29 22.6C694.09 21.1333 698.557 20.4 703.69 20.4C707.49 20.4 711.257 20.8333 714.99 21.7C718.79 22.5 721.924 23.6333 724.39 25.1L719.19 36.2C714.457 33.5333 709.29 32.2 703.69 32.2C700.357 32.2 697.857 32.6667 696.19 33.6C694.524 34.5333 693.69 35.7333 693.69 37.2C693.69 38.8667 694.59 40.0333 696.39 40.7C698.19 41.3667 701.057 42 704.99 42.6C709.39 43.3333 712.99 44.1333 715.79 45C718.59 45.8 721.024 47.3 723.09 49.5C725.157 51.7 726.19 54.7667 726.19 58.7C726.19 62.0333 725.19 65 723.19 67.6C721.19 70.2 718.257 72.2333 714.39 73.7C710.59 75.1 706.057 75.8 700.79 75.8Z" fill="#4DA0D2"/>
</svg>
